<?xml version="1.0" encoding="UTF-8"?>
<svg width="64px" height="64px" version="1.1" viewBox="0 0 64 64" xmlns="http://www.w3.org/2000/svg" xmlns:cc="http://creativecommons.org/ns#" xmlns:dc="http://purl.org/dc/elements/1.1/" xmlns:rdf="http://www.w3.org/1999/02/22-rdf-syntax-ns#">
 <title>fan_auto_mode</title>
 <g id="fan_speed" transform="translate(.24672 -7.5497)" fill="none" fill-rule="evenodd">
  <path id="Combined-Shape" d="m41 32-8.79e-4 0.12567c4.7229 0.40694 8.7371 1.8022 11.121 4.1857 2.189 2.189 3.8802 4.6886 3.8802 7.6886s-1.7578 5.9973-3.8802 8.1198c-4.3114 4.3114-10.778 5.0299-13.653 2.1557-2.4947-2.4947 1.5064-8.2374-2.0918-14.409 2.7586-1.5371 4.6247-4.4839 4.6247-7.8666zm-16.867 4.3749c1.5376 2.7589 4.4843 4.6251 7.867 4.6251l-0.09915-6.17e-4c-0.36977 5.2567-1.7738 8.682-4.2122 11.12-2.0914 2.0914-4.6886 3.8802-7.6886 3.8802s-5.8998-1.6603-8.1198-3.8802c-4.3114-4.3114-5.0299-10.778-2.1557-13.653 2.4641-2.4641 8.0971 1.4094 14.182-1.9629zm7.867-9.3749c2.7614 0 5 2.2386 5 5s-2.2386 5-5 5-5-2.2386-5-5 2.2386-5 5-5zm-6.4671-17.275c2.4947 2.4947-1.5064 8.2374 2.0918 14.409-2.7586 1.5371-4.6247 4.4839-4.6247 7.8666l6.17e-4 -0.09915c-5.2567-0.36977-8.682-1.7738-11.12-4.2122-2.0877-2.0877-3.8802-4.6886-3.8802-7.6886s1.6566-5.8961 3.8802-8.1198c4.3114-4.3114 10.778-5.0299 13.653-2.1557zm18.467-1.7246c3 0 5.9223 1.6827 8.1198 3.8802 4.3114 4.3114 5.0299 10.778 2.1557 13.653-2.4947 2.4947-8.2374-1.5064-14.409 2.0918-1.5371-2.7586-4.4839-4.6247-7.8666-4.6247l0.09915 6.17e-4c0.36977-5.2567 1.7738-8.682 4.2122-11.12 2.1139-2.1139 4.6886-3.8802 7.6886-3.8802z" fill="#000"/>
 </g>
 <path d="m39.625 63.753h-2.2884l-1.5835-4.3619h-6.9846l-1.5835 4.3619h-2.18l5.8783-15.65h2.8632zm-4.5335-6.1487-2.8307-7.6833-2.8416 7.6833z" stroke-width="2.05" aria-label="A"/>
 <metadata>
  <rdf:RDF>
   <cc:Work rdf:about="">
    <dc:title>fan_auto_mode</dc:title>
   </cc:Work>
  </rdf:RDF>
 </metadata>
</svg>
