<?xml version="1.0" encoding="iso-8859-1"?>
<!-- Uploaded to: SVG Repo, www.svgrepo.com, Generator: SVG Repo Mixer Tools -->
<!DOCTYPE svg PUBLIC "-//W3C//DTD SVG 1.1//EN" "http://www.w3.org/Graphics/SVG/1.1/DTD/svg11.dtd">
<svg fill="#000000" height="800px" width="800px" version="1.1" id="Capa_1" xmlns="http://www.w3.org/2000/svg" xmlns:xlink="http://www.w3.org/1999/xlink" 
	 viewBox="0 0 466.098 466.098" xml:space="preserve">
<g>
	<path d="M461.793,264.782c-30.613-6.824-61.673-10.908-92.893-12.263v-59.949l29.291-24.785c2.318-1.962,2.608-5.433,0.646-7.751
		c-1.961-2.318-5.431-2.608-7.751-0.646L368.9,178.159v-21.567l20.304-16.497l16.993,4.147c0.438,0.107,0.876,0.158,1.308,0.158
		c2.477,0,4.726-1.685,5.339-4.197c0.721-2.951-1.088-5.927-4.039-6.647l-8.884-2.168l5.396-4.384
		c2.357-1.916,2.716-5.379,0.8-7.737c-1.916-2.358-5.378-2.716-7.737-0.8L368.9,142.418v-8.742l14.495-28.267
		c1.386-2.703,0.318-6.018-2.385-7.404c-2.704-1.386-6.017-0.318-7.404,2.384l-11.598,22.616l-10.959-11.312l6.539-14.307
		c1.263-2.763,0.047-6.026-2.716-7.289c-2.762-1.26-6.025-0.047-7.288,2.716l-4.753,10.398l-12.729-13.139
		c-2.113-2.181-5.594-2.237-7.777-0.124c-2.182,2.113-2.236,5.595-0.123,7.777l35.697,36.848v18.094l-23.667-17.531
		c-2.44-1.808-5.885-1.295-7.693,1.146c-1.808,2.441-1.295,5.885,1.146,7.693l30.214,22.38v85.803
		c-3.111-0.071-6.222-0.119-9.335-0.135c-32.891-19.531-68.809-33.661-106.095-41.895v-18.673l10.621-5.712
		c2.675-1.438,3.677-4.773,2.238-7.449c-1.439-2.675-4.771-3.679-7.449-2.239l-5.41,2.91v-9.355l10.384-5.584
		c2.433-1.308,3.344-4.34,2.035-6.771c-1.308-2.433-4.343-3.344-6.771-2.035l-5.647,3.037v-5.141l9.39-8.512
		c2.046-1.855,2.201-5.017,0.346-7.063c-1.854-2.046-5.014-2.202-7.063-0.347l-6.141,5.567l-5.026-10.091
		c-1.23-2.472-4.232-3.477-6.704-2.247c-2.472,1.231-3.478,4.233-2.247,6.705l7.445,14.947v4.408l-7.416-4.44
		c-2.37-1.418-5.44-0.648-6.858,1.722s-0.647,5.44,1.722,6.858l12.553,7.515v3.251l-8.695-2.321
		c-2.669-0.71-5.408,0.874-6.121,3.542c-0.712,2.668,0.874,5.408,3.542,6.121l11.274,3.01v26.33
		c-14.829-2.838-29.847-4.748-44.954-5.698v-32.632l11.274-3.01c2.668-0.712,4.253-3.453,3.542-6.121
		c-0.712-2.668-3.451-4.254-6.121-3.542l-8.695,2.321v-4.59l10.714-6.127c2.397-1.371,3.229-4.425,1.858-6.822
		c-1.37-2.397-4.424-3.23-6.822-1.858l-5.75,3.288v-2.533l10.783-12.596c1.796-2.098,1.551-5.254-0.547-7.05
		c-2.097-1.796-5.254-1.551-7.05,0.547l-8.349,9.753l-10.199-10.916c-1.884-2.018-5.049-2.125-7.067-0.24
		c-2.018,1.885-2.125,5.049-0.24,7.067l12.669,13.559v9.662l-5.647-3.037c-2.433-1.309-5.464-0.397-6.771,2.035
		c-1.308,2.432-0.397,5.464,2.035,6.771l10.384,5.584v39.997c-36.638-1.275-73.361,3.074-108.62,12.734l-0.192-2.118l33.953-25.585
		l19.397,5.29c0.485,0.132,0.971,0.195,1.451,0.195c2.418,0,4.636-1.608,5.303-4.054c0.799-2.931-0.929-5.954-3.859-6.753
		l-17.777-4.848l0.825-20.626c0.122-3.035-2.241-5.594-5.276-5.715c-3.037-0.12-5.594,2.241-5.715,5.276l-0.896,22.396
		l-28.575,21.532l-3.294-36.319l26.767-22.152c2.34-1.937,2.667-5.404,0.73-7.744c-1.937-2.34-5.403-2.667-7.744-0.73l-4.097,3.39
		l-4.039-17.397c-0.687-2.959-3.645-4.802-6.601-4.114c-2.959,0.687-4.801,3.643-4.114,6.601l5.282,22.749l-10.233,8.469
		l-13.834-26.042c-1.425-2.682-4.755-3.703-7.438-2.276c-2.682,1.425-3.702,4.755-2.276,7.438l16.28,30.644l-1.176,21.09
		l-18.335-11.705l-4.528-21.732c-0.62-2.974-3.533-4.886-6.506-4.263c-2.974,0.62-4.882,3.532-4.263,6.506l3.535,16.966
		l-9.828-0.578c-3.025-0.176-5.635,2.136-5.813,5.168s2.135,5.635,5.168,5.813l15.571,0.916l24.296,15.51l-0.534,9.57l-25.946-4.702
		L8.488,190.281c-2.552-1.651-5.956-0.92-7.605,1.63s-0.92,5.955,1.63,7.605l10.378,6.715l-5.69,4.267
		c-2.43,1.822-2.923,5.27-1.1,7.7c1.081,1.441,2.732,2.201,4.404,2.201c1.148,0,2.306-0.358,3.295-1.101l10.081-7.56l26.012,4.714
		l-0.223,4c-13.71,4.585-27.148,9.988-40.214,16.195c-2.744,1.303-3.911,4.584-2.607,7.328c1.304,2.743,4.584,3.912,7.328,2.607
		c11.345-5.39,22.979-10.154,34.833-14.284l-5.692,102.056c-10.809,1.105-21.61,2.545-32.395,4.321
		c-2.998,0.494-5.027,3.323-4.533,6.32c0.494,2.998,3.326,5.025,6.32,4.533c67.313-11.086,135.266-8.818,201.973,6.739
		c65.712,15.326,126.986,42.763,182.122,81.549c0.962,0.677,2.065,1.002,3.159,1.002c1.729,0,3.433-0.814,4.503-2.336
		c1.748-2.484,1.151-5.915-1.334-7.663c-56.295-39.603-118.858-67.617-185.952-83.265c-45.504-10.613-91.578-15.16-137.646-13.641
		l-7.148-78.804l28.708-15.365c2.678-1.433,3.688-4.766,2.254-7.444c-1.433-2.678-4.765-3.688-7.444-2.254l-24.597,13.165
		l-1.403-15.469c35.538-9.95,72.648-14.333,109.633-12.787c17.804,0.743,35.507,2.869,52.932,6.312v9.3
		c-9.74,0.911-19.229,5.086-26.67,12.527c-2.148,2.148-2.148,5.63,0,7.778c1.074,1.074,2.481,1.611,3.889,1.611
		s2.815-0.537,3.889-1.611c12.672-12.671,33.291-12.672,45.962,0c2.146,2.147,5.631,2.147,7.777,0c2.148-2.148,2.148-5.63,0-7.778
		c-6.976-6.976-15.753-11.076-24.848-12.313v-7.383c29.222,6.666,57.551,17.073,84.134,30.966
		c-9.146,0.328-18.294,0.87-27.438,1.668c-54.904,4.794-108.414,17.973-159.042,39.172c-2.802,1.173-4.123,4.396-2.949,7.197
		c0.883,2.108,2.925,3.377,5.076,3.377c0.708,0,1.428-0.138,2.122-0.428c49.579-20.759,101.981-33.666,155.751-38.361
		c53.427-4.666,107.019-1.125,159.277,10.524c2.96,0.662,5.903-1.207,6.564-4.171S464.758,265.442,461.793,264.782z M54.391,333.348
		l5.418-97.141l8.724,96.181C63.818,332.643,59.104,332.966,54.391,333.348z"/>
	<circle cx="102.501" cy="270.899" r="6.333"/>
	<circle cx="140.167" cy="91.899" r="6.333"/>
	<circle cx="182.85" cy="33.61" r="6.333"/>
	<circle cx="246.167" cy="66.899" r="6.333"/>
	<circle cx="280.167" cy="125.899" r="6.333"/>
	<circle cx="315.167" cy="188.899" r="6.333"/>
	<circle cx="186.501" cy="242.565" r="6.333"/>
	<circle cx="150.501" cy="180.565" r="6.333"/>
	<circle cx="415.167" cy="65.899" r="6.333"/>
	<circle cx="437.167" cy="137.899" r="6.333"/>
	<circle cx="408.167" cy="218.899" r="6.333"/>
	<circle cx="25.501" cy="111.899" r="6.333"/>
</g>
</svg>