<?xml version="1.0" encoding="utf-8"?>
<!-- Generator: Adobe Illustrator 22.1.0, SVG Export Plug-In . SVG Version: 6.00 Build 0)  -->
<svg version="1.1"
	 id="svg4375" inkscape:version="0.48.1 " sodipodi:docname="Neues Dokument 3" xmlns:cc="http://creativecommons.org/ns#" xmlns:dc="http://purl.org/dc/elements/1.1/" xmlns:inkscape="http://www.inkscape.org/namespaces/inkscape" xmlns:rdf="http://www.w3.org/1999/02/22-rdf-syntax-ns#" xmlns:sodipodi="http://sodipodi.sourceforge.net/DTD/sodipodi-0.dtd" xmlns:svg="http://www.w3.org/2000/svg"
	 xmlns="http://www.w3.org/2000/svg" xmlns:xlink="http://www.w3.org/1999/xlink" x="0px" y="0px" viewBox="0 0 1059.3 500"
	 style="enable-background:new 0 0 1059.3 500;" xml:space="preserve">
<style type="text/css">
	.st0{fill:#006BB6;}
	.st1{fill:#0CB14B;}
	.st2{fill:#8E979D;}
</style>
<sodipodi:namedview  bordercolor="#666666" borderopacity="1.0" fit-margin-bottom="0" fit-margin-left="0" fit-margin-right="0" fit-margin-top="0" id="base" inkscape:current-layer="layer1" inkscape:cx="534.63499" inkscape:cy="255" inkscape:document-units="px" inkscape:pageopacity="0.0" inkscape:pageshadow="2" inkscape:window-height="990" inkscape:window-maximized="1" inkscape:window-width="1680" inkscape:window-x="-4" inkscape:window-y="-4" inkscape:zoom="1.4632711" pagecolor="#ffffff" showgrid="false">
	</sodipodi:namedview>
<g id="layer1" transform="translate(-247.66352,133.35282)" inkscape:groupmode="layer" inkscape:label="Ebene 1">
	<g id="g116" transform="matrix(24.306905,0,0,-24.306905,780.60914,-71.249908)">
		<path id="path118" inkscape:connector-curvature="0" class="st0" d="M-0.2,0.2c0,0,5.4,0.1,10.3-1.5c4.9-1.6,8.1-4.4,8.1-4.4
			l3.3,0c0,0-3.5,3.8-10.2,6.2C4.6,2.8-0.2,2.5-0.2,2.5V0.2"/>
	</g>
	<g id="g120" transform="matrix(24.306905,0,0,-24.306905,507.61829,-80.632373)">
		<path id="path122" inkscape:connector-curvature="0" class="st1" d="M-0.2,0.2c-6.3-2-10.5-6.3-10.5-6.3l3.3,0c0,0,2.7,2.7,8,4.4
			C6-0.1,11-0.2,11-0.2v2.3C11,2.2,6.1,2.4-0.2,0.2"/>
	</g>
	<g id="g128" transform="matrix(24.306905,0,0,-24.306905,714.61589,88.374509)">
		<path id="path130" inkscape:connector-curvature="0" class="st2" d="M-0.2,0.2L4.9-7l0,7.2l3.3,0l0-11.5l-3.8,0l-5.3,7.2L-1-11.4
			h-3.2V0.2"/>
	</g>
	<g id="g132" transform="matrix(24.306905,0,0,-24.306905,1311.9338,371.64718)">
		<path id="path134" inkscape:connector-curvature="0" class="st0" d="M-0.2,0.2l-4,0l-3.5,4.2l-4.1-4.2h-3.3l5.9,6l-4.7,5.6l3.9,0
			l2.9-3.4l3.4,3.4h3.3l-5.2-5.2"/>
	</g>
	<g id="g136" transform="matrix(24.306905,0,0,-24.306905,-5348.3769,1062.8617)">
		<g>
			<g id="g138">
				<g id="g144" transform="translate(237.668,34.645)">
					<path id="path146" inkscape:connector-curvature="0" class="st1" d="M-0.2,0.2l-0.5,0.6L4,5.6H0.7l-4.8-4.9v4.9h-3.3l0-11.6
						l3.3,0v3.3l1.3,1.3L1.1-6l4,0"/>
				</g>
			</g>
		</g>
	</g>
</g>
</svg>
